
        <svg xmlns="http://www.w3.org/2000/svg" xmlns:xlink="http://www.w3.org/1999/xlink" version="1.1" width="3162.1621621621625" 
        height="987.3986834306938" viewBox="0 0 3162.1621621621625 987.3986834306938">
			
			<g transform="scale(8.108108108108109) translate(10, 10)">
				<defs id="SvgjsDefs1665"><linearGradient id="SvgjsLinearGradient1670"><stop id="SvgjsStop1671" stop-color="#00ff8f" offset="0"></stop><stop id="SvgjsStop1672" stop-color="#00a1ff" offset="1"></stop></linearGradient></defs><g id="SvgjsG1666" featureKey="symbolFeature-0" transform="matrix(0.13581419715937443,0,0,0.13581419715937443,-17.927471952677237,-17.01751828236156)" fill="url(#SvgjsLinearGradient1670)"><g xmlns="http://www.w3.org/2000/svg"><path d="M661.8,226L637,215.3c-12.6-5.4-27.4,0.4-32.8,13l-36.9,85.7L269.8,185.9c-4.2-34.1-33.4-60.6-68.6-60.6   c-38.1,0-69.2,31-69.2,69.1c0,38.1,31,69.2,69.2,69.2c12.3,0,23.9-3.2,33.9-8.9l322.4,138.9l27.1,11.7c10.8,4.7,23.3,1,30-8.2   c1.1-1.5,2-3.1,2.7-4.8l11.1-25.7l0.2-0.4l46.3-107.5C680.3,246.2,674.4,231.5,661.8,226z M201.2,231.9c-2.4,0-4.7-0.2-7-0.7   c-17.3-3.3-30.4-18.5-30.4-36.8c0-20.6,16.8-37.4,37.4-37.4c11.2,0,21.2,4.9,28,12.7c5.8,6.6,9.4,15.3,9.4,24.8   C238.6,215.1,221.8,231.9,201.2,231.9z"></path><path d="M628.3,366.7c-0.1,0.3-0.2,0.5-0.3,0.8l-10.7,24.8c0,0,0,0.1-0.1,0.1L628.3,366.7z"></path><path d="M545.3,279.8L387.9,212c-6.1-2.6-8.9-9.7-6.3-15.8l21-48.7c2.6-6.1,9.7-8.9,15.8-6.3l157.4,67.8   c6.1,2.6,8.9,9.7,6.3,15.8l-21,48.7C558.5,279.6,551.4,282.4,545.3,279.8z"></path><path d="M614.5,397.2c-6.7,9.2-19.2,12.9-30.1,8.3l-24.8-10.7c-0.7-0.3-1.5-0.7-2.2-1.1l27.1,11.7   C595.4,410,607.8,406.4,614.5,397.2z"></path><path d="M630.3,632.5l-24.9-10.6c0,0-0.1,0-0.1-0.1L630.3,632.5z"></path><path d="M717.5,549.4l67.1-157.7c2.6-6.1,9.7-8.9,15.7-6.3l48.7,20.7c6.1,2.6,8.9,9.7,6.3,15.7l-67.1,157.7   c-2.6,6.1-9.7,8.9-15.7,6.3l-48.7-20.7C717.8,562.5,714.9,555.4,717.5,549.4z"></path><path d="M597,616.1c0.1,0.1,0.1,0.1,0.2,0.2C597.2,616.2,597.1,616.2,597,616.1C597.1,616.1,597.1,616.1,597,616.1z   "></path><path d="M597.2,616.2c0.3,0.3,0.5,0.6,0.8,0.8C597.7,616.8,597.5,616.5,597.2,616.2z"></path><path d="M596.1,615c0.3,0.4,0.6,0.7,0.9,1c-6.7-7-9-17.6-5-27l10.6-24.9c0.3-0.7,0.7-1.4,1.1-2.1l-11.5,27.1   c-1.5,3.6-2.2,7.4-2,11.1c0,0.3,0,0.5,0.1,0.7c0,0.3,0,0.5,0.1,0.8c0,0,0,0.1,0,0.1c0.1,0.4,0.1,0.9,0.2,1.3   c0.1,0.4,0.1,0.8,0.2,1.2c0,0.2,0.1,0.4,0.2,0.6c0.1,0.4,0.2,0.7,0.3,1c0.1,0.4,0.2,0.8,0.4,1.2c0,0.2,0.1,0.3,0.2,0.5   c0.1,0.4,0.3,0.8,0.5,1.1c0.2,0.4,0.3,0.7,0.5,1.1c0.1,0.2,0.2,0.5,0.4,0.7c0,0.1,0.1,0.2,0.1,0.3c0.2,0.3,0.3,0.6,0.5,0.8   c0.1,0.3,0.3,0.5,0.5,0.7c0.2,0.3,0.4,0.7,0.7,1c0.2,0.2,0.3,0.5,0.5,0.7C595.6,614.4,595.8,614.7,596.1,615z"></path><path d="M599.3,618.2c-0.4-0.4-0.8-0.7-1.2-1.1C598.4,617.4,598.8,617.8,599.3,618.2z"></path><path d="M375.8,610.9L365,636.6c0.1-0.2,0.2-0.5,0.3-0.7l10.5-24.9C375.8,610.9,375.8,610.9,375.8,610.9z"></path><path d="M448.8,722.8l158,66.4c6.1,2.6,9,9.6,6.4,15.7l-20.5,48.8c-2.6,6.1-9.6,9-15.7,6.4l-158-66.4   c-6.1-2.6-9-9.6-6.4-15.7l20.5-48.8C435.6,723.1,442.7,720.2,448.8,722.8z"></path><path d="M435.5,609l-27.1-11.4c-9.7-4-20.6-1.5-27.5,5.6c6.9-7.2,17.9-9.8,27.6-5.7l24.9,10.5   C434.2,608.3,434.9,608.6,435.5,609z"></path><path d="M385.7,381.4l-26-10.8c0.3,0.1,0.6,0.2,0.9,0.4l25,10.4C385.7,381.3,385.7,381.3,385.7,381.4z"></path><path d="M274.1,454.8l-65.7,158.3c-2.5,6.1-9.6,9-15.7,6.5l-48.9-20.3c-6.1-2.5-9-9.6-6.5-15.7L203,425.4   c2.5-6.1,9.6-9,15.7-6.5l48.9,20.3C273.8,441.7,276.7,448.7,274.1,454.8z"></path><g><path d="M798.8,133c-38.1,0-69.2,31-69.2,69.1c0,13.9,4.1,26.8,11.2,37.6L603.7,562l-11.5,27.1    c-1.5,3.6-2.2,7.4-2,11.1c0,0.2,0,0.5,0.1,0.7c0,0.3,0,0.5,0.1,0.8c0,0,0,0.1,0,0.1c0.1,0.4,0.1,0.9,0.2,1.3    c0.1,0.4,0.1,0.8,0.2,1.2c0,0.2,0.1,0.4,0.2,0.6c0.1,0.4,0.2,0.7,0.3,1c0.1,0.4,0.2,0.8,0.4,1.2c0,0.2,0.1,0.3,0.2,0.5    c0.1,0.4,0.3,0.8,0.5,1.1c0.2,0.4,0.3,0.7,0.5,1.1c0.1,0.2,0.2,0.5,0.4,0.7c0,0.1,0.1,0.2,0.1,0.3c0.2,0.3,0.3,0.6,0.5,0.8    c0.1,0.3,0.3,0.5,0.5,0.7c0.2,0.3,0.4,0.7,0.7,1c0.2,0.2,0.3,0.5,0.5,0.7c0.3,0.3,0.5,0.6,0.8,1c0.2,0.2,0.3,0.4,0.5,0.6    c0.1,0.1,0.1,0.1,0.2,0.2c0.1,0.1,0.1,0.1,0.2,0.2c0.1,0.1,0.1,0.1,0.1,0.1c0.7,0.7,1.4,1.4,2.2,2c0,0,0,0,0,0    c0.4,0.3,0.8,0.6,1.2,0.9c1.5,1.1,3.1,2,4.8,2.7l25,10.7l1.2,0.5l107.7,45.8c12.6,5.4,27.4-0.6,32.7-13.2l10.6-24.9    c5.4-12.6-0.6-27.3-13.2-32.7l-85.9-36.5l128.2-301.3c32.1-6,56.4-34.2,56.4-68C868,164,837,133,798.8,133z M826.1,227.7    c-6.8,7.3-16.5,11.8-27.3,11.8c-20.6,0-37.4-16.8-37.4-37.4c0-0.7,0-1.5,0.1-2.2v0c1.1-19.6,17.4-35.2,37.4-35.2    c20.6,0,37.4,16.8,37.4,37.4C836.3,212,832.4,221,826.1,227.7z"></path></g><g><path d="M392.1,385.2c-1.9-1.6-4-2.9-6.3-3.8l-26-10.8l-0.3-0.1l-108.1-44.8c-12.7-5.3-27.4,0.8-32.6,13.5    l-10.4,25c-5.3,12.7,0.8,27.4,13.5,32.6l86.2,35.8L181.7,737.2c-28.7,8.4-49.7,35-49.7,66.4c0,38.1,31,69.2,69.2,69.2    c38.1,0,69.2-31,69.2-69.2c0-16.2-5.6-31.1-15-42.9l132.5-319.5c0.4-0.7,0.7-1.4,1-2.1l10.4-25C403.5,403.7,400.3,392,392.1,385.2    z M201.2,841c-20.6,0-37.4-16.8-37.4-37.4c0-7.6,2.3-14.6,6.1-20.5c6.7-10.2,18.2-16.9,31.3-16.9c19.3,0,35.2,14.7,37.2,33.5v0    c0.1,1.3,0.2,2.6,0.2,3.9C238.6,824.2,221.8,841,201.2,841z"></path></g><g><path d="M795,736.3c-12.5,0-24.3,3.4-34.5,9.2L435.5,609l-27.1-11.4c-9.7-4-20.6-1.5-27.5,5.6    c-2.1,2.2-3.9,4.7-5.1,7.7L365,636.6L319.5,745c-5.3,12.7,0.7,27.4,13.3,32.7l24.9,10.5c12.7,5.3,27.4-0.7,32.7-13.3l36.2-86.1    l299.9,126c4.5,33.8,33.5,59.9,68.5,59.9c38.1,0,69.2-31,69.2-69.2C864.2,767.4,833.2,736.3,795,736.3z M795,842.9    c-11.3,0-21.4-5-28.2-12.9h0c-5.7-6.6-9.2-15.2-9.2-24.5c0-20.6,16.8-37.4,37.4-37.4c1.9,0,3.7,0.1,5.6,0.4    c18,2.7,31.9,18.3,31.9,37C832.5,826.1,815.7,842.9,795,842.9z"></path></g></g></g><g id="SvgjsG1667" featureKey="nameFeature-0" transform="matrix(2.0180820595966087,0,0,2.0180820595966087,116.60962056171141,-3.037460093948468)" fill="#000000"><path d="M32.68 37.56 l-2.08 5.04 c-0.24 -0.04 -1.52 -0.24 -2.52 -0.6 c-1.44 -0.48 -2.64 -1.24 -5.2 -3.16 c-2.56 1.24 -4.24 1.96 -7.12 1.96 c-1.24 0 -3.88 -0.12 -6.76 -1.56 c-7 -3.56 -7.32 -11.28 -7.32 -13.48 c0 -1.76 0.2 -6.48 3.76 -10.44 c3.72 -4.16 8.36 -4.4 10.32 -4.4 c1.64 0 5.8 0.24 9.4 3.36 c3.24 2.8 4.84 7.16 4.84 11.4 c0 1 -0.12 4.12 -1.48 7 c-0.36 0.8 -0.84 1.6 -1.32 2.36 c0.4 0.36 0.88 0.8 1.32 1.08 c1.32 0.92 2.6 1.2 4.16 1.44 z M23 25.8 c0 -2.88 -1.08 -5.24 -1.64 -6.04 c-1.84 -2.8 -4.96 -2.92 -6 -2.84 c-0.64 0.04 -2.24 0.2 -3.68 1.32 c-2.16 1.68 -2.96 4.92 -2.96 7.52 c0 0.92 0 5.4 3.16 7.8 c1.6 1.2 3.4 1.32 4.08 1.32 c0.48 0 1.68 -0.08 2.92 -0.68 c4.12 -2.04 4.12 -7.6 4.12 -8.4 z M59.879999999999995 40 l-7.52 0 l-1.4 -4.52 l-10.4 0 l-1.4 4.52 l-7.52 0 l10.48 -28.24 l7.36 0 z M49.36 30.4 l-3.68 -11.92 l-3.48 11.92 l7.16 0 z M80.76 31.92 c-0.04 3 -1.64 5.72 -4.2 7.16 c-1.36 0.8 -2.84 1.08 -3.36 1.16 c-1.16 0.24 -2.36 0.24 -2.72 0.24 c-0.96 0 -4.08 -0.04 -6.52 -2.16 c-0.64 -0.56 -1.68 -1.64 -2.28 -3.64 c-0.48 -1.6 -0.44 -3.36 -0.44 -3.8 l6.24 -0.52 c0 0.28 -0.04 0.6 -0.04 0.88 c0 0.48 -0.08 2.4 1.36 3.56 c0.8 0.68 1.56 0.72 1.96 0.72 c0.16 0 0.84 -0.04 1.4 -0.24 c2.12 -0.8 2.2 -3.28 2.2 -3.8 c0 -1.28 -0.52 -3.36 -3.68 -3.44 c-0.44 0 -0.84 0 -1.28 0.04 l0.04 -4.6 c0.16 0 1.08 0.08 1.8 -0.04 c1.64 -0.28 2.48 -1.52 2.48 -3.12 c0 -0.28 0 -0.8 -0.24 -1.4 c-0.44 -1.04 -1.52 -1.68 -2.64 -1.68 c-0.4 0 -1.52 0.08 -2.2 1.12 c-0.56 0.88 -0.56 1.84 -0.56 2.8 l-6.32 -0.56 c0.08 -0.84 0.2 -2.72 1.52 -4.68 c1.2 -1.72 3.36 -3.52 7.96 -3.52 c2.92 0 6.04 0.76 7.72 3.4 c0.4 0.6 1.12 1.92 1.12 3.88 c0 0.72 -0.2 3.12 -2 4.68 c-0.84 0.72 -2.24 1.24 -2.44 1.36 c0.76 0.16 1.44 0.32 2.12 0.72 c2 1.08 3 3.24 3 5.48 z M103.60000000000001 30.880000000000003 c0 3.12 -1 4.88 -1.76 5.92 c-0.56 0.8 -1.24 1.48 -2.08 2.04 c-0.96 0.64 -2.96 1.6 -5.88 1.6 c-0.84 0 -3 -0.08 -5.08 -1.44 c-2.72 -1.8 -4.64 -5.2 -4.64 -11.92 c0 -0.64 -0.04 -5.8 1.52 -9.24 c0.56 -1.24 1.16 -1.96 1.52 -2.4 c2.04 -2.36 4.52 -3.08 7.52 -3.08 c1.04 0 3.92 0.04 6.12 2.36 c0.92 1 1.36 2.04 1.56 2.48 c0.36 0.84 0.52 1.68 0.68 2.52 l-6.44 0.68 c0 -0.36 0.16 -1.68 -0.84 -2.6 c-0.64 -0.56 -1.32 -0.6 -1.64 -0.6 c-0.24 0 -0.76 0.04 -1.36 0.36 c-1.08 0.56 -1.48 1.48 -1.8 2.56 c-0.44 1.48 -0.64 2.68 -0.72 5.64 c0.32 -0.6 0.56 -1 1.08 -1.48 c0.72 -0.64 2.28 -1.68 4.8 -1.68 c0.96 0 3.16 0.2 5.04 2 c2.4 2.28 2.4 5.24 2.4 6.28 z M97.48 31.32 c0 -2.36 -0.88 -3.44 -1.92 -3.88 c-0.24 -0.08 -0.8 -0.32 -1.52 -0.28 c-1.4 0.12 -3 1.16 -3 4.2 c0 2.08 0.6 3.12 1.32 3.72 s1.48 0.64 1.84 0.64 c0.28 0 0.92 -0.04 1.6 -0.44 c1 -0.56 1.68 -1.64 1.68 -3.96 z M125.56 30.6 c0 0.76 -0.08 2.6 -0.96 4.56 c-0.96 2.08 -3.48 5.44 -9.24 5.4 c-1.76 0 -7.08 -0.44 -8.8 -6 c-0.4 -1.28 -0.44 -2.68 -0.44 -3.08 l6.32 -0.24 c0 0.32 -0.24 3.2 1.84 4.16 c0.44 0.2 0.92 0.28 1.4 0.28 c1.24 0 2 -0.72 2.28 -1.04 c1.08 -1.28 1.04 -3.88 1.04 -4 c0 -3.48 -1.72 -4.68 -3.44 -4.68 c-1.36 0 -2.16 0.84 -2.4 1.2 s-0.4 0.8 -0.44 0.92 l-5.52 -0.92 l1.64 -14.2 l15.56 0 l-0.36 5.12 l-10.24 0 l-0.68 4.92 c0.24 -0.16 0.48 -0.36 0.76 -0.52 c0.56 -0.32 1.8 -0.88 3.56 -0.88 c0.96 0 2.08 0.2 2.96 0.52 c4.88 1.8 5.16 7.16 5.16 8.48 z"></path></g>
			</g>
		</svg>
	